<?xml version="1.0" encoding="UTF-8" standalone="no"?>
<!-- Created with Inkscape (http://www.inkscape.org/) -->

<svg
   width="210mm"
   height="160.11099mm"
   viewBox="0 0 210 160.11099"
   version="1.1"
   id="svg1"
   inkscape:version="1.3.2 (1:1.3.2+202404261509+091e20ef0f)"
   sodipodi:docname="ojoMiroLight.svg"
   xmlns:inkscape="http://www.inkscape.org/namespaces/inkscape"
   xmlns:sodipodi="http://sodipodi.sourceforge.net/DTD/sodipodi-0.dtd"
   xmlns="http://www.w3.org/2000/svg"
   xmlns:svg="http://www.w3.org/2000/svg">
  <sodipodi:namedview
     id="namedview1"
     pagecolor="#505050"
     bordercolor="#eeeeee"
     borderopacity="1"
     inkscape:showpageshadow="0"
     inkscape:pageopacity="0"
     inkscape:pagecheckerboard="0"
     inkscape:deskcolor="#505050"
     inkscape:document-units="mm"
     inkscape:zoom="0.44453563"
     inkscape:cx="447.65816"
     inkscape:cy="473.52785"
     inkscape:window-width="1300"
     inkscape:window-height="699"
     inkscape:window-x="66"
     inkscape:window-y="32"
     inkscape:window-maximized="1"
     inkscape:current-layer="g11" />
  <defs
     id="defs1" />
  <g
     inkscape:label="Layer 1"
     inkscape:groupmode="layer"
     id="layer1">
    <g
       id="g12"
       transform="matrix(0.14884711,0,0,0.14884711,-52.462101,-24.857321)">
      <g
         id="g11">
        <path
           class="st27"
           d="m 385.9,696.3 c 0,0 396.2,476.8 709.5,534.5 294.7,54.3 614.1,-73.8 667.9,-462.8 -38.5,124.7 -137.4,259.6 -265.2,335.8 -133.1,79.4 -297.3,96.2 -454.4,19.5 0,0 170.8,15.3 327.9,-81.7 C 1492.5,967 1748.3,704.4 1748.3,704.4 1748.3,704.4 1633.9,590 1488,457 1333.2,315.9 1171,162.5 928.4,167.1 548.4,174.3 333.3,467 353.8,704.7 433.7,341.7 812.6,148.5 1077,281 816.8,272.2 679,409.2 554.6,529.5 463.2,617.8 385.9,696.3 385.9,696.3 Z"
           id="path5"
           style="fill:#114071" />
        <path
           class="st27"
           d="m 1060.9,292.6 c -220.5,0 -399.3,183.6 -399.3,410.1 0,226.5 178.8,410.1 399.3,410.1 220.5,0 399.3,-183.6 399.3,-410.1 0,-226.5 -178.8,-410.1 -399.3,-410.1 z m -0.5,728.7 c -175.7,0 -318.1,-143.5 -318.1,-320.5 0,-177 142.4,-320.5 318.1,-320.5 175.7,0 318.1,143.5 318.1,320.5 0.1,177 -142.4,320.5 -318.1,320.5 z"
           id="path6"
           style="fill:#114071" />
        <path
           class="st0"
           d="M 714.8,907.5 622.6,819.3 502.9,704.9 622.6,590.5 709.9,507 c 0,0 -48.4,81.9 -48.4,203.1 0.1,108.5 53.3,197.4 53.3,197.4 z"
           id="path7"
           style="fill:#fed500" />
        <path
           class="st0"
           d="m 1408.3,907.5 92.2,-88.2 119.7,-114.4 -119.7,-114.4 -87.3,-83.5 c 0,0 48.4,81.9 48.4,203.1 0,108.5 -53.3,197.4 -53.3,197.4 z"
           id="path8"
           style="fill:#fed500" />
        <ellipse
           class="st28"
           cx="1055.9"
           cy="700.5"
           rx="341.10001"
           ry="338.5"
           id="ellipse8"
           style="fill:#1c89ca" />
        <ellipse
           class="st2"
           cx="1061.8"
           cy="704.20001"
           rx="255.10001"
           ry="257.79999"
           id="ellipse9"
           style="fill:#ffffff" />
        <ellipse
           cx="1063.9"
           cy="700"
           rx="180.5"
           ry="177.60001"
           id="ellipse10" />
        <ellipse
           class="st29"
           cx="989.29999"
           cy="641.09998"
           rx="53.099998"
           ry="54.799999"
           id="ellipse11"
           style="fill:#cfcece" />
      </g>
    </g>
  </g>
</svg>
