<?xml version="1.0" encoding="UTF-8" standalone="no"?>
<!-- Created with Inkscape (http://www.inkscape.org/) -->

<svg
   width="1400mm"
   height="913.05103mm"
   viewBox="0 0 1400 913.05103"
   version="1.1"
   id="svg1"
   inkscape:export-filename="miroTexto.webp"
   inkscape:export-xdpi="81"
   inkscape:export-ydpi="81"
   sodipodi:docname="textoMiroLight.svg"
   inkscape:version="1.3.2 (1:1.3.2+202404261509+091e20ef0f)"
   xmlns:inkscape="http://www.inkscape.org/namespaces/inkscape"
   xmlns:sodipodi="http://sodipodi.sourceforge.net/DTD/sodipodi-0.dtd"
   xmlns="http://www.w3.org/2000/svg"
   xmlns:svg="http://www.w3.org/2000/svg">
  <sodipodi:namedview
     id="namedview1"
     pagecolor="#505050"
     bordercolor="#eeeeee"
     borderopacity="1"
     inkscape:showpageshadow="0"
     inkscape:pageopacity="0"
     inkscape:pagecheckerboard="0"
     inkscape:deskcolor="#505050"
     inkscape:document-units="mm"
     inkscape:zoom="0.08"
     inkscape:cx="2368.75"
     inkscape:cy="2106.25"
     inkscape:window-width="1300"
     inkscape:window-height="699"
     inkscape:window-x="66"
     inkscape:window-y="32"
     inkscape:window-maximized="1"
     inkscape:current-layer="g4"
     showgrid="false" />
  <defs
     id="defs1" />
  <g
     inkscape:label="Layer 1"
     inkscape:groupmode="layer"
     id="layer1">
    <g
       id="g4"
       transform="matrix(1.0153021,0,0,1.0153021,-373.93572,-1276.7423)">
      <path
         class="st27"
         d="m 398.5,2015.4 c -10.8,0 -18.5,-1.8 -23.2,-5.3 -4.7,-3.5 -7,-8.2 -7,-14 v -577.7 c 0,-6.4 2.3,-11.2 7,-14.4 4.7,-3.2 12.4,-4.8 23.2,-4.8 h 16.2 c 11.3,0 19.7,1.3 25.4,3.9 5.6,2.6 9.4,6.6 11.4,11.8 l 91.1,274 c 2.4,7 4.8,14 7,21 2.2,7 3.8,14 4.8,21 1,-7 2.7,-14 5.1,-21 2.4,-7 4.7,-14 6.6,-21 l 91.1,-274 c 2,-5.3 5.9,-9.2 11.8,-11.8 5.9,-2.6 14.2,-3.9 25,-3.9 h 16.2 c 11.3,0 19.1,1.6 23.5,4.8 4.4,3.2 6.6,8 6.6,14.4 v 577.7 c 0,5.8 -2.2,10.5 -6.6,14 -4.4,3.5 -12.3,5.3 -23.5,5.3 h -5.9 c -10.8,0 -18.5,-1.8 -23.2,-5.3 -4.7,-3.5 -7,-8.2 -7,-14 v -383.4 c 0,-10.5 0.4,-20.9 1.1,-31.1 0.7,-10.2 1.6,-20.6 2.6,-31.1 l -2.9,-1.8 c -3.4,9.9 -6.5,19.8 -9.2,29.8 -2.7,9.9 -6,20.1 -9.9,30.6 l -59.5,176.8 c -2.5,7.6 -6.7,12.6 -12.9,14.9 -6.1,2.3 -14.1,3.5 -23.9,3.5 h -10.3 c -9.3,0 -17.2,-1.2 -23.5,-3.5 -6.4,-2.3 -10.8,-7.3 -13.2,-14.9 L 453,1609.1 c -3.4,-10.5 -6.6,-20.7 -9.6,-30.6 -2.9,-9.9 -6.1,-19.8 -9.6,-29.8 l -2.9,1.8 c 1,10.5 1.8,20.9 2.6,31.1 0.7,10.2 1.1,20.6 1.1,31.1 v 383.4 c 0,5.8 -2.2,10.5 -6.6,14 -4.4,3.5 -12.3,5.3 -23.5,5.3 z"
         id="path1"
         style="fill:#114071" />
      <path
         class="st27"
         d="m 891.7,2015.4 c -10.8,0 -18.5,-1.8 -23.2,-5.3 -4.7,-3.5 -7,-8.2 -7,-14 v -577.7 c 0,-6.4 2.3,-11.2 7,-14.4 4.7,-3.2 12.4,-4.8 23.2,-4.8 h 5.9 c 11.3,0 19.1,1.6 23.5,4.8 4.4,3.2 6.6,8 6.6,14.4 v 577.7 c 0,5.8 -2.2,10.5 -6.6,14 -4.4,3.5 -12.3,5.3 -23.5,5.3 z"
         id="path2"
         style="fill:#114071" />
      <path
         class="st27"
         d="m 1078.4,2015.4 c -10.8,0 -18.5,-1.8 -23.2,-5.3 -4.7,-3.5 -7,-8.2 -7,-14 v -568.9 c 0,-17.5 7.6,-26.3 22.8,-26.3 h 105.8 c 46.5,0 81.5,14.7 104.7,44.2 23.3,29.5 34.9,73.4 34.9,131.7 0,22.2 -2.2,42.9 -6.6,62.1 -4.4,19.3 -11.8,35.4 -22,48.6 -10.3,13.1 -24,22.6 -41.2,28.4 v 3.5 c 12.7,7.6 23.3,18.1 31.6,31.5 8.3,13.4 15.7,31.8 22,55.1 l 46.3,172.4 c 1,4.7 2,9.2 2.9,13.6 1,4.4 1.5,7.7 1.5,10.1 0,5.8 -2.2,9.5 -6.6,10.9 -4.4,1.4 -11.5,2.2 -21.3,2.2 h -11 c -8.3,0 -14.8,-1.5 -19.5,-4.4 -4.7,-2.9 -7.7,-7.3 -9.2,-13.1 l -44.8,-168.1 c -5.9,-22.8 -12.1,-40.3 -18.7,-52.5 -6.6,-12.3 -14.6,-20.9 -23.9,-25.8 -9.3,-5 -21.1,-7.4 -35.3,-7.4 h -46.3 V 1996 c 0,5.8 -2.2,10.5 -6.6,14 -4.4,3.5 -12.3,5.3 -23.5,5.3 h -5.8 z m 36,-337.9 h 64.7 c 25,0 43,-7.9 54,-23.6 11,-15.7 16.5,-41.4 16.5,-77 0,-38.5 -5.5,-66.4 -16.5,-83.6 -11,-17.2 -29,-25.8 -54,-25.8 h -64.7 z"
         id="path3"
         style="fill:#114071" />
      <path
         class="st27"
         d="m 1563.5,2018.9 c -59.3,0 -104.9,-25.7 -136.7,-77 -31.9,-51.3 -47.8,-130.1 -47.8,-236.3 0,-106.2 15.9,-184.4 47.8,-234.6 31.8,-50.2 77.4,-75.3 136.7,-75.3 59.3,0 104.7,25.1 136.3,75.3 31.6,50.2 47.4,128.4 47.4,234.6 0,106.2 -15.8,185 -47.4,236.3 -31.5,51.3 -77,77 -136.3,77 z m 0,-66.5 c 40.2,0 69.7,-20 88.6,-60 18.9,-40 28.3,-102.3 28.3,-186.9 0,-83.4 -9.4,-144.9 -28.3,-184.2 -18.9,-39.4 -48.4,-59.1 -88.6,-59.1 -40.2,0 -69.8,19.7 -88.9,59.1 -19.1,39.4 -28.7,100.8 -28.7,184.2 0,84.6 9.6,146.9 28.7,186.9 19.1,40 48.7,60 88.9,60 z m -20.6,-597 c -6.4,0 -11.4,-0.7 -15.1,-2.2 -3.7,-1.4 -5.5,-3.9 -5.5,-7.4 0,-2.3 0.4,-4.7 1.1,-7 0.7,-2.3 2.1,-5.5 4,-9.6 l 23.5,-51.6 c 3.9,-8.2 8.6,-13.6 14,-16.2 5.4,-2.6 14.2,-3.9 26.5,-3.9 12.7,0 21.1,1.3 25,3.9 3.9,2.6 5.9,5.7 5.9,9.2 0,4.1 -1.2,8.2 -3.7,12.3 -2.5,4.1 -5.6,8.8 -9.6,14 l -34.5,47.3 c -3.4,5.3 -7.5,8.5 -12.1,9.6 -4.7,1.1 -11.1,1.6 -19.5,1.6 z"
         id="path4"
         style="fill:#114071" />
    </g>
  </g>
</svg>
